<?xml version="1.0" encoding="utf-8"?>
<!-- Generator: Adobe Illustrator 23.1.0, SVG Export Plug-In . SVG Version: 6.00 Build 0)  -->
<svg version="1.1" id="Слой_1" xmlns="http://www.w3.org/2000/svg" xmlns:xlink="http://www.w3.org/1999/xlink" x="0px" y="0px"
	 viewBox="0 0 16 16" style="enable-background:new 0 0 16 16;" xml:space="preserve">
<style type="text/css">
	.st0{fill:#D03E9D;}
</style>
<path class="st0" d="M14,12.8H2c-0.3,0-0.6-0.2-0.7-0.5c-0.1-0.3,0-0.7,0.3-0.8c0,0,1.7-1.3,1.7-5.8c0-1.3,0.5-2.6,1.4-3.5
	C5.5,1.1,6.7,0.6,8,0.6c1.3,0,2.5,0.5,3.4,1.5c0.9,0.9,1.4,2.2,1.4,3.5c0,4.4,1.7,5.8,1.7,5.8c0.3,0.2,0.4,0.5,0.3,0.8
	C14.6,12.5,14.3,12.8,14,12.8z M3.5,11.3h8.9c-0.6-1.1-1.2-2.8-1.2-5.6c0-0.9-0.4-1.8-1-2.5c-1.2-1.3-3.3-1.3-4.6,0
	c-0.6,0.7-1,1.6-1,2.5C4.8,8.4,4.1,10.2,3.5,11.3z"/>
<path class="st0" d="M8,15.4c-0.4,0-0.7-0.1-1-0.3c-0.3-0.2-0.6-0.4-0.8-0.8c-0.2-0.4-0.1-0.8,0.3-1c0.4-0.2,0.8-0.1,1,0.3
	c0.1,0.1,0.1,0.2,0.2,0.2c0.2,0.1,0.4,0.1,0.6,0c0.1-0.1,0.2-0.1,0.2-0.2c0.2-0.4,0.7-0.5,1-0.3c0.4,0.2,0.5,0.7,0.3,1
	C9.6,14.7,9.4,15,9,15.1C8.7,15.3,8.4,15.4,8,15.4z"/>
</svg>
