<?xml version="1.0" encoding="utf-8"?>
<!-- Generator: Adobe Illustrator 23.1.0, SVG Export Plug-In . SVG Version: 6.00 Build 0)  -->
<svg version="1.1" id="Слой_1" xmlns="http://www.w3.org/2000/svg" xmlns:xlink="http://www.w3.org/1999/xlink" x="0px" y="0px"
	 viewBox="0 0 16 16" style="enable-background:new 0 0 16 16;" xml:space="preserve">
<style type="text/css">
	.st0{fill-rule:evenodd;clip-rule:evenodd;fill:#D03E9D;}
</style>
<g>
	<g>
		<path class="st0" d="M8,2.1C4.7,2.1,2.1,4.7,2.1,8c0,1.1,0.3,2.1,0.8,3C3,11.1,3,11.3,3,11.5l-0.4,1.9L4.5,13c0.2,0,0.4,0,0.5,0.1
			c0.9,0.5,1.9,0.8,3,0.8c3.3,0,5.9-2.6,5.9-5.9C13.9,4.7,11.3,2.1,8,2.1z M0.6,8c0-4.1,3.3-7.4,7.4-7.4c4.1,0,7.4,3.3,7.4,7.4
			c0,4.1-3.3,7.4-7.4,7.4c-1.2,0-2.4-0.3-3.5-0.9l-2.7,0.5c-0.2,0-0.5,0-0.7-0.2c-0.2-0.2-0.3-0.4-0.2-0.7l0.5-2.7
			C0.9,10.4,0.6,9.2,0.6,8z"/>
	</g>
</g>
</svg>
