<svg width="24" height="24" viewBox="0 0 24 24" fill="none" xmlns="http://www.w3.org/2000/svg">
<path fill-rule="evenodd" clip-rule="evenodd" d="M6.2928 11.7929C6.68332 11.4024 7.31649 11.4024 7.70701 11.7929L9.99991 14.0858L16.2928 7.79289C16.6833 7.40237 17.3165 7.40237 17.707 7.79289C18.0975 8.18342 18.0975 8.81658 17.707 9.20711L10.707 16.2071C10.3165 16.5976 9.68332 16.5976 9.2928 16.2071L6.2928 13.2071C5.90228 12.8166 5.90228 12.1834 6.2928 11.7929Z" fill="#A71373"/>
<path fill-rule="evenodd" clip-rule="evenodd" d="M12 3C7.02944 3 3 7.02944 3 12C3 16.9706 7.02944 21 12 21C16.9706 21 21 16.9706 21 12C21 7.02944 16.9706 3 12 3ZM1 12C1 5.92487 5.92487 1 12 1C18.0751 1 23 5.92487 23 12C23 18.0751 18.0751 23 12 23C5.92487 23 1 18.0751 1 12Z" fill="#A71373"/>
</svg>
