<svg width="24" height="24" viewBox="0 0 24 24" fill="none" xmlns="http://www.w3.org/2000/svg">
<path fill-rule="evenodd" clip-rule="evenodd" d="M6.22805 6.22703C6.52094 5.93414 6.99582 5.93414 7.28871 6.22703L12.001 10.9393L16.7133 6.22703C17.0062 5.93414 17.4811 5.93414 17.774 6.22703C18.0669 6.51992 18.0669 6.9948 17.774 7.28769L13.0617 12L17.774 16.7123C18.0669 17.0052 18.0669 17.4801 17.774 17.773C17.4811 18.0659 17.0062 18.0659 16.7133 17.773L12.001 13.0607L7.28871 17.773C6.99582 18.0659 6.52094 18.0659 6.22805 17.773C5.93516 17.4801 5.93516 17.0052 6.22805 16.7123L10.9404 12L6.22805 7.28769C5.93516 6.9948 5.93516 6.51992 6.22805 6.22703Z" fill="white"/>
</svg>
