<svg width="16" height="16" viewBox="0 0 16 16" fill="none" xmlns="http://www.w3.org/2000/svg">
<path fill-rule="evenodd" clip-rule="evenodd" d="M7.34439 15.1605L1.94439 12.1605C1.51582 11.9224 1.25001 11.4707 1.25001 10.9804L1.25 5.0198C1.25 4.52953 1.5158 4.07779 1.94438 3.83969L7.34439 0.839687C7.75212 0.613171 8.2479 0.613172 8.65563 0.839688L14.0556 3.83969C14.4842 4.07779 14.75 4.52952 14.75 5.0198L14.75 10.9804C14.75 11.4707 14.4842 11.9224 14.0556 12.1605L8.65563 15.1605C8.2479 15.387 7.75212 15.387 7.34439 15.1605ZM13.25 10.8921L13.25 5.94131L8.75001 8.44131V13.3921L13.25 10.8921ZM7.25001 13.3921L2.75001 10.8921L2.75 5.94136L7.25001 8.44136V13.3921ZM8.00001 2.19139L12.4556 4.66672L7.99997 7.14206L3.54438 4.66674L8.00001 2.19139Z" fill="#55575B"/>
</svg>
