<svg width="16" height="16" viewBox="0 0 16 16" fill="none" xmlns="http://www.w3.org/2000/svg">
<path fill-rule="evenodd" clip-rule="evenodd" d="M1.25 14C1.25 13.5858 1.58579 13.25 2 13.25L14 13.25C14.4142 13.25 14.75 13.5858 14.75 14C14.75 14.4142 14.4142 14.75 14 14.75L2 14.75C1.58579 14.75 1.25 14.4142 1.25 14Z" fill="#A71373"/>
<path fill-rule="evenodd" clip-rule="evenodd" d="M13.8637 5.82965C14.1566 5.53675 14.1566 5.06188 13.8637 4.76899L10.5639 1.46915C10.271 1.17626 9.79611 1.17626 9.50322 1.46915L3.9775 6.99488C3.64931 7.32307 3.46494 7.76819 3.46494 8.23231L3.46494 11.1179C3.46494 11.5321 3.80073 11.8679 4.21494 11.8679L7.10055 11.8679C7.56468 11.8679 8.0098 11.6836 8.33799 11.3554L13.8637 5.82965ZM12.2727 5.29932L11.4478 6.12427L9.20859 3.8851L10.0336 3.06014L12.2727 5.29932ZM8.14793 4.94576L10.3871 7.18493L7.27733 10.2947C7.23045 10.3416 7.16686 10.3679 7.10055 10.3679L4.96494 10.3679L4.96494 8.23231C4.96494 8.16601 4.99128 8.10242 5.03816 8.05554L8.14793 4.94576Z" fill="#A71373"/>
</svg>
