<svg width="24" height="24" viewBox="0 0 24 24" fill="none" xmlns="http://www.w3.org/2000/svg">
<path fill-rule="evenodd" clip-rule="evenodd" d="M3.53033 2.46967C3.23744 2.17678 2.76256 2.17678 2.46967 2.46967C2.17678 2.76256 2.17678 3.23744 2.46967 3.53033L6.33283 7.39349C4.81937 8.59408 3.54406 10.1342 2.41688 11.5278C2.21485 11.7775 2.19433 12.1282 2.36584 12.3998C3.35379 13.9645 4.73681 15.5384 6.37286 16.7277C8.00742 17.9159 9.93668 18.7494 12 18.7494C13.5823 18.7494 15.0858 18.2589 16.4356 17.4962L20.4697 21.5303C20.7626 21.8232 21.2374 21.8232 21.5303 21.5303C21.8232 21.2374 21.8232 20.7626 21.5303 20.4697L3.53033 2.46967ZM3.92836 12.0462C5.00118 10.7334 6.12341 9.44475 7.40134 8.462L9.59883 10.6595C9.37682 11.0563 9.25 11.5141 9.25 12.0007C9.25 13.5194 10.4812 14.7507 12 14.7507C12.4865 14.7507 12.9443 14.6238 13.3412 14.4018L15.3282 16.3888C14.2601 16.9332 13.1368 17.2494 12 17.2494C10.345 17.2494 8.71857 16.5784 7.25485 15.5144C5.94557 14.5626 4.80018 13.3197 3.92836 12.0462ZM12.1776 13.2382L10.7624 11.8231C10.7542 11.8811 10.75 11.9403 10.75 12.0007C10.75 12.691 11.3096 13.2507 12 13.2507C12.0603 13.2507 12.1196 13.2464 12.1776 13.2382ZM12 5.25C11.5858 5.25 11.25 5.58579 11.25 6C11.25 6.41421 11.5858 6.75 12 6.75C15.4204 6.75 17.829 9.30551 20.0715 12.0469C19.8458 12.3767 19.6012 12.7051 19.3396 13.0274C19.0786 13.349 19.1278 13.8213 19.4494 14.0824C19.771 14.3434 20.2433 14.2942 20.5044 13.9726C20.9213 13.4589 21.2998 12.9299 21.6341 12.4004C21.8057 12.1288 21.7851 11.7781 21.5831 11.5283C19.3286 8.74087 16.4201 5.25 12 5.25Z" fill="#F0F3F7"/>
</svg>
