<svg width="24" height="24" viewBox="0 0 24 24" fill="none" xmlns="http://www.w3.org/2000/svg">
<path fill-rule="evenodd" clip-rule="evenodd" d="M7.25485 15.515C5.94562 14.5632 4.80026 13.3204 3.92845 12.0469C6.17106 9.30554 8.57957 6.75 12 6.75C15.4205 6.75 17.829 9.30551 20.0716 12.0469C19.1998 13.3204 18.0544 14.5632 16.7452 15.515C15.2815 16.579 13.655 17.25 12 17.25C10.345 17.25 8.71857 16.579 7.25485 15.515ZM12 5.25C7.57988 5.25 4.67148 8.74092 2.41688 11.5283C2.21485 11.7781 2.19433 12.1288 2.36584 12.4004C3.35379 13.9651 4.73681 15.539 6.37286 16.7283C8.00742 17.9165 9.93668 18.75 12 18.75C14.0634 18.75 15.9926 17.9165 17.6272 16.7283C19.2632 15.539 20.6462 13.9651 21.6342 12.4004C21.8057 12.1288 21.7852 11.7781 21.5831 11.5283C19.3286 8.74087 16.4202 5.25 12 5.25ZM10.75 12C10.75 11.3096 11.3096 10.75 12 10.75C12.6904 10.75 13.25 11.3096 13.25 12C13.25 12.6904 12.6904 13.25 12 13.25C11.3096 13.25 10.75 12.6904 10.75 12ZM12 9.25C10.4812 9.25 9.25 10.4812 9.25 12C9.25 13.5188 10.4812 14.75 12 14.75C13.5188 14.75 14.75 13.5188 14.75 12C14.75 10.4812 13.5188 9.25 12 9.25Z" fill="#F0F3F7"/>
</svg>
