<svg width="16" height="16" viewBox="0 0 16 16" fill="none" xmlns="http://www.w3.org/2000/svg">
<g clip-path="url(#clip0_2041_15943)">
<path fill-rule="evenodd" clip-rule="evenodd" d="M8 6.91675C8.41421 6.91675 8.75 7.25253 8.75 7.66675V11.0001C8.75 11.4143 8.41421 11.7501 8 11.7501C7.58579 11.7501 7.25 11.4143 7.25 11.0001L7.25 7.66675C7.25 7.25253 7.58579 6.91675 8 6.91675Z" fill="#55575B"/>
<path fill-rule="evenodd" clip-rule="evenodd" d="M8.50842 4.44182C8.81629 4.71893 8.84123 5.19315 8.56413 5.50102L8.55746 5.50843C8.28035 5.8163 7.80614 5.84124 7.49826 5.56413C7.19039 5.28703 7.16545 4.81281 7.44255 4.50494L7.44922 4.49753C7.72633 4.18966 8.20054 4.16472 8.50842 4.44182Z" fill="#55575B"/>
<path fill-rule="evenodd" clip-rule="evenodd" d="M8.00004 2.08325C4.73236 2.08325 2.08337 4.73223 2.08337 7.99992C2.08337 11.2676 4.73236 13.9166 8.00004 13.9166C11.2677 13.9166 13.9167 11.2676 13.9167 7.99992C13.9167 4.73223 11.2677 2.08325 8.00004 2.08325ZM0.583374 7.99992C0.583374 3.90381 3.90393 0.583252 8.00004 0.583252C12.0962 0.583252 15.4167 3.90381 15.4167 7.99992C15.4167 12.096 12.0962 15.4166 8.00004 15.4166C3.90393 15.4166 0.583374 12.096 0.583374 7.99992Z" fill="#55575B"/>
</g>
<defs>
<clipPath id="clip0_2041_15943">
<rect width="16" height="16" fill="white"/>
</clipPath>
</defs>
</svg>
