<svg width="46" height="52" viewBox="0 0 46 52" fill="none" xmlns="http://www.w3.org/2000/svg">
<g clip-path="url(#clip0_2071_55988)">
<path d="M21.4473 26.4681C21.4473 27.0638 21.9579 27.5745 22.5536 27.5745H35.8302C36.426 27.5745 36.9366 27.0638 36.9366 26.4681C36.9366 25.8723 36.426 25.3617 35.8302 25.3617H22.5536C21.9579 25.3617 21.4473 25.8723 21.4473 26.4681Z" fill="#A71373"/>
<path d="M21.1064 30.7234C21.1064 31.3192 21.6171 31.8298 22.2128 31.8298H43.0639C43.6596 31.8298 44.1703 31.3192 44.1703 30.7234C44.1703 30.1277 43.6596 29.617 43.0639 29.617H22.2128C21.6171 29.617 21.1064 30.1277 21.1064 30.7234Z" fill="#A71373"/>
<path d="M31.4896 19.1489C32.0854 19.1489 32.596 18.6383 32.596 18.0425C32.596 17.4468 32.0854 16.9362 31.4896 16.9362H17.5322C16.9364 16.9362 16.4258 17.4468 16.4258 18.0425C16.4258 18.6383 16.9364 19.1489 17.5322 19.1489H31.4896Z" fill="#A71373"/>
<path d="M33.4473 18.0425C33.4473 18.6383 33.9579 19.1489 34.5536 19.1489H38.7239C39.3196 19.1489 39.8302 18.6383 39.8302 18.0425C39.8302 17.4468 39.3196 16.9362 38.7239 16.9362H34.5536C33.9579 16.9362 33.4473 17.4468 33.4473 18.0425Z" fill="#A71373"/>
<path d="M33.0213 22.2979C33.0213 21.7021 32.5106 21.1915 31.9149 21.1915H9.10638C8.51064 21.1915 8 21.7021 8 22.2979C8 22.8936 8.51064 23.4043 9.10638 23.4043H31.9149C32.5106 23.4043 33.0213 22.8936 33.0213 22.2979Z" fill="#A71373"/>
<path d="M26.2129 13.7872C26.2129 14.383 26.7235 14.8936 27.3193 14.8936H32.9363C33.532 14.8936 34.0427 14.383 34.0427 13.7872C34.0427 13.1915 33.532 12.6808 32.9363 12.6808H27.3193C26.7235 12.6808 26.2129 13.1915 26.2129 13.7872Z" fill="#A71373"/>
<path d="M28.7656 10.7234H29.8719C30.4677 10.7234 30.9783 10.2128 30.9783 9.61703C30.9783 9.02129 30.4677 8.51065 29.8719 8.51065H28.7656C28.1698 8.51065 27.6592 9.02129 27.6592 9.61703C27.6592 10.2128 28.1698 10.7234 28.7656 10.7234Z" fill="#A71373"/>
<path d="M15.3192 27.6596C15.915 27.6596 16.4256 27.1489 16.4256 26.5532C16.4256 25.9574 15.915 25.4468 15.3192 25.4468H6.21283C5.61708 25.4468 5.10645 25.9574 5.10645 26.5532C5.10645 27.1489 5.61708 27.6596 6.21283 27.6596H15.3192Z" fill="#A71373"/>
<path d="M37.0214 38.0425C36.4257 38.0425 35.915 38.5532 35.915 39.1489C35.915 39.7447 36.4257 40.2553 37.0214 40.2553H39.5746C40.1704 40.2553 40.681 39.7447 40.681 39.1489C40.681 38.5532 40.1704 38.0425 39.5746 38.0425H37.0214Z" fill="#A71373"/>
<path d="M15.4044 33.7872H9.02142C8.42568 33.7872 7.91504 34.2979 7.91504 34.8936C7.91504 35.4894 8.42568 36 9.02142 36H15.4044C16.0001 36 16.5108 35.4894 16.5108 34.8936C16.5108 34.2979 16.0001 33.7872 15.4044 33.7872Z" fill="#A71373"/>
<path d="M44.3402 35.234C44.3402 34.6383 43.6594 34.1277 42.8083 34.1277H24.5104C23.6594 34.1277 22.9785 34.6383 22.9785 35.234C22.9785 35.8298 23.6594 36.3404 24.5104 36.3404H42.8083C43.6594 36.4255 44.3402 35.9149 44.3402 35.234Z" fill="#A71373"/>
<path d="M3.57422 30.7234C3.57422 31.3192 4.08486 31.8298 4.6806 31.8298H13.7019C14.2976 31.8298 14.8083 31.3192 14.8083 30.7234C14.8083 30.1277 14.2976 29.617 13.7019 29.617H4.6806C4.08486 29.617 3.57422 30.1277 3.57422 30.7234Z" fill="#A71373"/>
<path d="M6.72357 40.3404H15.1491C15.7448 40.3404 16.2555 39.8298 16.2555 39.234C16.2555 38.6383 15.7448 38.1277 15.1491 38.1277H6.72357C6.12783 38.1277 5.61719 38.6383 5.61719 39.234C5.61719 39.8298 6.12783 40.3404 6.72357 40.3404Z" fill="#A71373"/>
<path d="M2.21289 34.9787C2.21289 35.5745 2.72353 36.0851 3.31927 36.0851H5.61715C6.21289 36.0851 6.72353 35.5745 6.72353 34.9787C6.72353 34.383 6.21289 33.8723 5.61715 33.8723H3.40438C2.72353 33.7872 2.21289 34.2979 2.21289 34.9787Z" fill="#A71373"/>
<path d="M19.2345 8.42554C18.5536 8.42554 18.043 8.93618 18.043 9.53192C18.043 10.1277 18.5536 10.6383 19.2345 10.6383H25.4472C26.1281 10.6383 26.6387 10.1277 26.6387 9.53192C26.6387 8.93618 26.1281 8.42554 25.4472 8.42554H19.2345Z" fill="#A71373"/>
<path d="M22.2128 38.0425C21.6171 38.0425 21.1064 38.5532 21.1064 39.1489C21.1064 39.7447 21.6171 40.2553 22.2128 40.2553H33.8724C34.4681 40.2553 34.9788 39.7447 34.9788 39.1489C34.9788 38.5532 34.4681 38.0425 33.8724 38.0425H22.2128Z" fill="#A71373"/>
<path d="M14.3834 44.5106C14.9791 44.5106 15.4898 44 15.4898 43.4043C15.4898 42.8085 14.9791 42.2979 14.3834 42.2979H11.1494C10.5536 42.2979 10.043 42.8085 10.043 43.4043C10.043 44 10.5536 44.5106 11.1494 44.5106H14.3834Z" fill="#A71373"/>
<path d="M7.65914 42.2979H5.44637C4.76552 42.2979 4.25488 42.8085 4.25488 43.4043C4.25488 44 4.76552 44.5106 5.36127 44.5106H7.65914C8.25488 44.5106 8.76552 44 8.76552 43.4043C8.76552 42.8085 8.25488 42.2979 7.65914 42.2979Z" fill="#A71373"/>
<path d="M3.23404 38.0425H1.10638C0.510638 38.0425 0 38.5532 0 39.1489C0 39.7447 0.510638 40.2553 1.10638 40.2553H3.23404C3.82979 40.2553 4.34043 39.7447 4.34043 39.1489C4.42553 38.5532 3.91489 38.0425 3.23404 38.0425Z" fill="#A71373"/>
<path d="M41.6166 42.2979H39.6591C39.0634 42.2979 38.5527 42.8085 38.5527 43.4043C38.5527 44 39.0634 44.5106 39.6591 44.5106H41.6166C42.2123 44.5106 42.7229 44 42.7229 43.4043C42.7229 42.8085 42.2123 42.2979 41.6166 42.2979Z" fill="#A71373"/>
<path d="M44.1701 38.0425H42.8935C42.2978 38.0425 41.7871 38.5532 41.7871 39.1489C41.7871 39.7447 42.2978 40.2553 42.8935 40.2553H44.1701C44.7658 40.2553 45.2765 39.7447 45.2765 39.1489C45.2765 38.5532 44.7658 38.0425 44.1701 38.0425Z" fill="#A71373"/>
<path d="M36.2551 42.2979H22.3827C21.787 42.2979 21.2764 42.8085 21.2764 43.4043C21.2764 44 21.787 44.5106 22.3827 44.5106H36.2551C36.8508 44.5106 37.3615 44 37.3615 43.4043C37.3615 42.8085 36.8508 42.2979 36.2551 42.2979Z" fill="#A71373"/>
<path d="M2.38275 27.6596H3.14871C3.74445 27.6596 4.25509 27.1489 4.25509 26.5532C4.25509 25.9574 3.74445 25.4468 3.14871 25.4468H2.38275C1.78701 25.4468 1.27637 25.9574 1.27637 26.5532C1.27637 27.1489 1.78701 27.6596 2.38275 27.6596Z" fill="#A71373"/>
<path d="M2.72357 23.4043H5.53208C6.12783 23.4043 6.63846 22.8936 6.63846 22.2979C6.63846 21.7021 6.12783 21.1915 5.53208 21.1915H2.72357C2.12783 21.1915 1.61719 21.7021 1.61719 22.2979C1.61719 22.8936 2.04272 23.4043 2.72357 23.4043Z" fill="#A71373"/>
<path d="M15.0634 10.7234H15.6592C16.2549 10.7234 16.7655 10.2128 16.7655 9.61703C16.7655 9.02129 16.2549 8.51065 15.6592 8.51065H15.0634C14.4677 8.51065 13.957 9.02129 13.957 9.61703C13.957 10.2128 14.4677 10.7234 15.0634 10.7234Z" fill="#A71373"/>
<path d="M21.957 2.29788H23.3187C23.9144 2.29788 24.4251 1.78724 24.4251 1.1915C24.4251 0.595752 23.9144 0.0851135 23.3187 0.0851135H21.957C21.3612 0.0851135 20.8506 0.595752 20.8506 1.1915C20.8506 1.78724 21.3612 2.29788 21.957 2.29788Z" fill="#A71373"/>
<path d="M14.3827 14.9787H18.4679H18.553H18.6381H23.9998C24.5955 14.9787 25.1062 14.4681 25.1062 13.8723C25.1062 13.2766 24.5955 12.766 23.9998 12.766H18.6381H18.553H18.4679H14.3827C13.787 12.766 13.2764 13.2766 13.2764 13.8723C13.2764 14.4681 13.787 14.9787 14.3827 14.9787Z" fill="#A71373"/>
<path d="M18.5536 6.46808H24.426C25.0217 6.46808 25.5324 5.95744 25.5324 5.36169C25.5324 4.76595 25.0217 4.25531 24.426 4.25531H18.5536C17.9579 4.25531 17.4473 4.76595 17.4473 5.36169C17.4473 5.95744 17.9579 6.46808 18.5536 6.46808Z" fill="#A71373"/>
<path d="M13.3618 19.1489H14.383C14.9788 19.1489 15.4894 18.6383 15.4894 18.0425C15.4894 17.4468 14.9788 16.9362 14.383 16.9362H13.3618C12.766 16.9362 12.2554 17.4468 12.2554 18.0425C12.1703 18.6383 12.6809 19.1489 13.3618 19.1489Z" fill="#A71373"/>
<path d="M8.8515 19.1489H10.2132C10.8089 19.1489 11.3196 18.6383 11.3196 18.0425C11.3196 17.4468 10.8089 16.9362 10.2132 16.9362H8.8515C8.25575 16.9362 7.74512 17.4468 7.74512 18.0425C7.74512 18.6383 8.25575 19.1489 8.8515 19.1489Z" fill="#A71373"/>
<path d="M24.3405 50.5532H11.5746C10.8086 50.5532 10.8086 51.234 10.8086 51.3191C10.8086 51.4043 10.8086 52.0851 11.5746 52.0851H24.3405C25.1065 52.0851 25.1065 51.4043 25.1065 51.3191C25.1065 51.234 25.1065 50.5532 24.3405 50.5532Z" fill="#A71373"/>
<path d="M21.787 35.1489C21.6168 34.383 19.5742 35.9149 19.5742 34.5532C19.5742 33.3617 19.5742 31.5745 19.5742 30.5532C19.5742 30.2979 19.5742 30.0425 19.5742 29.7872H18.3827C18.2125 29.7872 18.1274 29.7021 18.1274 29.5319C18.1274 29.3617 18.2125 29.2766 18.3827 29.2766H19.5742C19.5742 29.1915 19.5742 29.1064 19.5742 29.0213L19.6593 27.7447C19.6593 27.7447 19.8295 26.4681 18.9785 26.4681C18.7232 26.4681 18.3827 26.5532 18.2125 26.8085C17.7019 27.4042 16.6806 29.1064 16.5955 29.8723C16.5104 30.8085 17.8721 30.5532 18.0423 33.617H18.4678C18.5529 33.617 18.638 33.7021 18.638 33.7872C18.638 33.8723 18.5529 33.9574 18.4678 33.9574H18.0423C18.0423 34.0425 18.0423 34.0425 18.0423 34.1277C18.0423 35.7447 18.1274 38.5532 17.8721 41.4468H18.1274C18.2976 41.4468 18.3827 41.5319 18.3827 41.7021C18.3827 41.8723 18.2976 41.9574 18.1274 41.9574H17.787C17.6168 43.8298 17.3615 45.7872 16.9359 47.4894H17.9572C18.1274 47.4894 18.2125 47.5745 18.2125 47.7447C18.2125 47.9149 18.1274 48 17.9572 48H16.7657C16.4253 49.1064 16.0849 50.1277 15.5742 50.9787H19.9998C19.9998 50.9787 18.8934 49.9574 18.8934 48.8511C18.8934 47.8298 19.0636 46.2128 19.1487 44.8511H17.8721C17.787 44.8511 17.7019 44.766 17.7019 44.6808C17.7019 44.5957 17.787 44.5106 17.8721 44.5106H19.1487C19.2338 43.234 19.3189 40 19.3189 38.7234H18.7232C18.638 38.7234 18.5529 38.6383 18.5529 38.5532C18.5529 38.4681 18.638 38.383 18.7232 38.383H19.4891C19.4891 36.5106 21.9572 35.9149 21.787 35.1489Z" fill="#A71373"/>
</g>
<defs>
<clipPath id="clip0_2071_55988">
<rect width="45.2766" height="52" fill="white"/>
</clipPath>
</defs>
</svg>
