<svg width="16" height="16" viewBox="0 0 16 16" fill="none" xmlns="http://www.w3.org/2000/svg">
<path fill-rule="evenodd" clip-rule="evenodd" d="M10.1363 5.46967C10.4292 5.17678 10.9041 5.17678 11.197 5.46967L13.197 7.46967C13.4899 7.76256 13.4899 8.23744 13.197 8.53033L11.197 10.5303C10.9041 10.8232 10.4292 10.8232 10.1363 10.5303C9.84344 10.2374 9.84344 9.76256 10.1363 9.46967L10.856 8.75H8C7.58579 8.75 7.25 8.41421 7.25 8C7.25 7.58579 7.58579 7.25 8 7.25H10.856L10.1363 6.53033C9.84344 6.23744 9.84344 5.76256 10.1363 5.46967Z" fill="#55575B"/>
<path fill-rule="evenodd" clip-rule="evenodd" d="M2.58301 3.33333C2.58301 2.18274 3.51575 1.25 4.66634 1.25H11.333C12.4836 1.25 13.4163 2.18275 13.4163 3.33333V4C13.4163 4.41421 13.0806 4.75 12.6663 4.75C12.2521 4.75 11.9163 4.41421 11.9163 4V3.33333C11.9163 3.01116 11.6552 2.75 11.333 2.75H4.66634C4.34417 2.75 4.08301 3.01117 4.08301 3.33333V12.6667C4.08301 12.9888 4.34417 13.25 4.66634 13.25H11.333C11.6552 13.25 11.9163 12.9889 11.9163 12.6667V12C11.9163 11.5858 12.2521 11.25 12.6663 11.25C13.0806 11.25 13.4163 11.5858 13.4163 12V12.6667C13.4163 13.8173 12.4836 14.75 11.333 14.75H4.66634C3.51576 14.75 2.58301 13.8173 2.58301 12.6667V3.33333Z" fill="#55575B"/>
</svg>
