<svg width="20" height="20" viewBox="0 0 20 20" fill="none" xmlns="http://www.w3.org/2000/svg">
<path fill-rule="evenodd" clip-rule="evenodd" d="M1.75 4.16675C1.75 3.75253 2.08579 3.41675 2.5 3.41675H17.5C17.9142 3.41675 18.25 3.75253 18.25 4.16675C18.25 4.58096 17.9142 4.91675 17.5 4.91675H2.5C2.08579 4.91675 1.75 4.58096 1.75 4.16675Z" fill="white"/>
<path fill-rule="evenodd" clip-rule="evenodd" d="M1.75 10C1.75 9.58579 2.08579 9.25 2.5 9.25H17.5C17.9142 9.25 18.25 9.58579 18.25 10C18.25 10.4142 17.9142 10.75 17.5 10.75H2.5C2.08579 10.75 1.75 10.4142 1.75 10Z" fill="white"/>
<path fill-rule="evenodd" clip-rule="evenodd" d="M1.75 15.8333C1.75 15.419 2.08579 15.0833 2.5 15.0833H17.5C17.9142 15.0833 18.25 15.419 18.25 15.8333C18.25 16.2475 17.9142 16.5833 17.5 16.5833H2.5C2.08579 16.5833 1.75 16.2475 1.75 15.8333Z" fill="white"/>
</svg>
