<svg width="16" height="16" viewBox="0 0 16 16" fill="none" xmlns="http://www.w3.org/2000/svg">
<path d="M12 8.33329C12.1841 8.33329 12.3333 8.18405 12.3333 7.99996C12.3333 7.81586 12.1841 7.66663 12 7.66663C11.8159 7.66663 11.6667 7.81586 11.6667 7.99996C11.6667 8.18405 11.8159 8.33329 12 8.33329Z" fill="#55575B"/>
<path fill-rule="evenodd" clip-rule="evenodd" d="M12 8.66663C12.3682 8.66663 12.6667 8.36815 12.6667 7.99996C12.6667 7.63177 12.3682 7.33329 12 7.33329C11.6318 7.33329 11.3333 7.63177 11.3333 7.99996C11.3333 8.36815 11.6318 8.66663 12 8.66663ZM10.6667 7.99996C10.6667 7.26358 11.2636 6.66663 12 6.66663C12.7364 6.66663 13.3333 7.26358 13.3333 7.99996C13.3333 8.73634 12.7364 9.33329 12 9.33329C11.2636 9.33329 10.6667 8.73634 10.6667 7.99996Z" fill="#55575B"/>
<path d="M8.00001 8.33329C8.1841 8.33329 8.33334 8.18405 8.33334 7.99996C8.33334 7.81586 8.1841 7.66663 8.00001 7.66663C7.81591 7.66663 7.66667 7.81586 7.66667 7.99996C7.66667 8.18405 7.81591 8.33329 8.00001 8.33329Z" fill="#55575B"/>
<path fill-rule="evenodd" clip-rule="evenodd" d="M8.00001 8.66663C8.36819 8.66663 8.66667 8.36815 8.66667 7.99996C8.66667 7.63177 8.36819 7.33329 8.00001 7.33329C7.63182 7.33329 7.33334 7.63177 7.33334 7.99996C7.33334 8.36815 7.63182 8.66663 8.00001 8.66663ZM6.66667 7.99996C6.66667 7.26358 7.26363 6.66663 8.00001 6.66663C8.73638 6.66663 9.33334 7.26358 9.33334 7.99996C9.33334 8.73634 8.73638 9.33329 8.00001 9.33329C7.26363 9.33329 6.66667 8.73634 6.66667 7.99996Z" fill="#55575B"/>
<path d="M4.00001 8.33329C4.1841 8.33329 4.33334 8.18405 4.33334 7.99996C4.33334 7.81586 4.1841 7.66663 4.00001 7.66663C3.81591 7.66663 3.66667 7.81586 3.66667 7.99996C3.66667 8.18405 3.81591 8.33329 4.00001 8.33329Z" fill="#55575B"/>
<path fill-rule="evenodd" clip-rule="evenodd" d="M4.00001 8.66663C4.36819 8.66663 4.66667 8.36815 4.66667 7.99996C4.66667 7.63177 4.36819 7.33329 4.00001 7.33329C3.63182 7.33329 3.33334 7.63177 3.33334 7.99996C3.33334 8.36815 3.63182 8.66663 4.00001 8.66663ZM2.66667 7.99996C2.66667 7.26358 3.26363 6.66663 4.00001 6.66663C4.73638 6.66663 5.33334 7.26358 5.33334 7.99996C5.33334 8.73634 4.73638 9.33329 4.00001 9.33329C3.26363 9.33329 2.66667 8.73634 2.66667 7.99996Z" fill="#55575B"/>
</svg>
