<svg width="16" height="16" viewBox="0 0 16 16" fill="none" xmlns="http://www.w3.org/2000/svg">
<g clip-path="url(#clip0_2328_37542)">
<path fill-rule="evenodd" clip-rule="evenodd" d="M5.25 8C5.25 6.48119 6.48119 5.25 8 5.25C9.51881 5.25 10.75 6.48119 10.75 8C10.75 9.51881 9.51881 10.75 8 10.75C6.48119 10.75 5.25 9.51881 5.25 8ZM8 6.75C7.30961 6.75 6.75 7.30961 6.75 8C6.75 8.69039 7.30961 9.25 8 9.25C8.69039 9.25 9.25 8.69039 9.25 8C9.25 7.30961 8.69039 6.75 8 6.75Z" fill="#55575B"/>
<path fill-rule="evenodd" clip-rule="evenodd" d="M6.59504 1.14238C6.68175 0.812894 6.97964 0.583252 7.32034 0.583252H8.62321C8.96403 0.583252 9.26201 0.81306 9.3486 1.1427L9.66875 2.36144L10.7041 2.78722L11.5124 2.09642C11.81 1.84209 12.2532 1.85944 12.53 2.13626L13.8633 3.46959C14.1391 3.74533 14.1575 4.18639 13.9057 4.48417L13.2173 5.29839L13.6304 6.29595L14.8512 6.60638C15.1836 6.69093 15.4164 6.99025 15.4163 7.33329L15.4163 8.65142C15.4163 8.99289 15.1856 9.29124 14.8551 9.37722L13.6257 9.69709L13.2117 10.697L13.9051 11.5149C14.1575 11.8127 14.1393 12.2542 13.8633 12.5302L12.53 13.8636C12.2483 14.1453 11.7955 14.1576 11.4989 13.8916L11.4624 13.8589L11.3616 13.7693C11.2767 13.694 11.1608 13.5916 11.0361 13.4831C10.9245 13.386 10.8132 13.2903 10.7135 13.2062L9.70399 13.6243L9.39339 14.8507C9.3091 15.1835 9.00963 15.4166 8.66634 15.4166H7.33301C6.98953 15.4166 6.68994 15.1833 6.60584 14.8502L6.29633 13.6247L5.32142 13.2236L4.47348 13.9146C4.17522 14.1577 3.74141 14.1356 3.46934 13.8636L2.13601 12.5302C1.85492 12.2492 1.84197 11.7976 2.1065 11.5008L2.80166 10.721L2.38433 9.73104L1.13549 9.39011C0.809281 9.30105 0.583008 9.00473 0.583008 8.66659V7.33325C0.583008 6.98471 0.823126 6.6821 1.16255 6.60288L2.36619 6.32197L2.77332 5.32099L2.08424 4.47285C1.8419 4.17456 1.86425 3.74135 2.13601 3.46959L3.46934 2.13626C3.7502 1.8554 4.20133 1.84221 4.49812 2.10618L5.28075 2.80228L6.26769 2.38624L6.59504 1.14238ZM11.9672 12.305L12.3142 11.958L11.7715 11.3178C11.5898 11.1035 11.5432 10.8055 11.6507 10.5459L12.3827 8.77829C12.4726 8.56108 12.6592 8.39862 12.8868 8.33942L13.9163 8.07155L13.9163 7.9164L12.8964 7.65705C12.6672 7.59875 12.4789 7.43571 12.3883 7.21715L11.6565 5.45008C11.5492 5.19077 11.5955 4.89319 11.7768 4.67887L12.3149 4.04245L11.9597 3.68729L11.3301 4.22538C11.1161 4.40821 10.8178 4.45589 10.5576 4.34885L8.75295 3.60671C8.53549 3.51728 8.37256 3.33105 8.31282 3.10363L8.04478 2.08325H7.8985L7.62438 3.12488C7.56516 3.34992 7.40483 3.53472 7.1904 3.62511L5.42727 4.36833C5.16083 4.48065 4.85356 4.42979 4.6375 4.23763L4.0298 3.69712L3.67496 4.05196L4.21735 4.71955C4.38993 4.93197 4.4331 5.22153 4.32999 5.47506L3.60941 7.24669C3.51768 7.4722 3.32221 7.63916 3.08513 7.69449L2.08301 7.92837V8.09389L3.13127 8.38006C3.35342 8.44071 3.5354 8.60005 3.62485 8.81226L4.36795 10.5751C4.48038 10.8418 4.4293 11.1494 4.23668 11.3655L3.69744 11.9704L4.051 12.3239L4.71998 11.7787C4.93328 11.6049 5.22465 11.5618 5.47912 11.6665L7.21634 12.3812C7.43609 12.4716 7.6 12.6608 7.65818 12.8911L7.91715 13.9166H8.08261L8.3423 12.8912C8.40044 12.6617 8.56358 12.4731 8.78238 12.3825L10.5494 11.6507C10.7886 11.5516 11.0619 11.5829 11.2725 11.7334C11.4422 11.8547 11.7306 12.0997 11.9672 12.305Z" fill="#55575B"/>
</g>
<defs>
<clipPath id="clip0_2328_37542">
<rect width="16" height="16" fill="white"/>
</clipPath>
</defs>
</svg>
