<svg width="24" height="24" viewBox="0 0 24 24" fill="none" xmlns="http://www.w3.org/2000/svg">
<path fill-rule="evenodd" clip-rule="evenodd" d="M12 5.25C12.4142 5.25 12.75 5.58579 12.75 6V14C12.75 14.4142 12.4142 14.75 12 14.75C11.5858 14.75 11.25 14.4142 11.25 14V6C11.25 5.58579 11.5858 5.25 12 5.25Z" fill="#202124"/>
<path fill-rule="evenodd" clip-rule="evenodd" d="M12.6793 17.2551C13.0897 17.6247 13.1226 18.257 12.753 18.6674L12.743 18.6785C12.3733 19.0888 11.741 19.1218 11.3307 18.7521C10.9204 18.3825 10.8874 17.7502 11.257 17.3398L11.267 17.3287C11.6367 16.9184 12.269 16.8854 12.6793 17.2551Z" fill="#202124"/>
</svg>
