<svg width="46" height="46" viewBox="0 0 46 46" fill="none" xmlns="http://www.w3.org/2000/svg">
<rect width="46" height="46" rx="10" fill="#A71373"/>
<g clip-path="url(#clip0_2223_4627)">
<path d="M21.8477 23.3241C21.8477 23.7365 22.2012 24.09 22.6136 24.09H31.8051C32.2175 24.09 32.5711 23.7365 32.5711 23.3241C32.5711 22.9116 32.2175 22.5581 31.8051 22.5581H22.6136C22.2012 22.5581 21.8477 22.9116 21.8477 23.3241Z" fill="white"/>
<path d="M21.6123 26.27C21.6123 26.6825 21.9658 27.036 22.3783 27.036H36.8136C37.2261 27.036 37.5796 26.6825 37.5796 26.27C37.5796 25.8576 37.2261 25.5041 36.8136 25.5041H22.3783C21.9658 25.5041 21.6123 25.8576 21.6123 26.27Z" fill="white"/>
<path d="M28.7999 18.257C29.2123 18.257 29.5659 17.9034 29.5659 17.491C29.5659 17.0786 29.2123 16.725 28.7999 16.725H19.1371C18.7246 16.725 18.3711 17.0786 18.3711 17.491C18.3711 17.9034 18.7246 18.257 19.1371 18.257H28.7999Z" fill="white"/>
<path d="M30.1553 17.491C30.1553 17.9034 30.5088 18.257 30.9212 18.257H33.8083C34.2207 18.257 34.5743 17.9034 34.5743 17.491C34.5743 17.0786 34.2207 16.725 33.8083 16.725H30.9212C30.5088 16.725 30.1553 17.0786 30.1553 17.491Z" fill="white"/>
<path d="M29.8605 20.437C29.8605 20.0246 29.507 19.671 29.0946 19.671H13.304C12.8916 19.671 12.5381 20.0246 12.5381 20.437C12.5381 20.8494 12.8916 21.203 13.304 21.203H29.0946C29.507 21.203 29.8605 20.8494 29.8605 20.437Z" fill="white"/>
<path d="M25.1475 14.545C25.1475 14.9574 25.501 15.311 25.9134 15.311H29.8021C30.2146 15.311 30.5681 14.9574 30.5681 14.545C30.5681 14.1326 30.2146 13.7791 29.8021 13.7791H25.9134C25.501 13.7791 25.1475 14.1326 25.1475 14.545Z" fill="white"/>
<path d="M26.9154 12.4239H27.6813C28.0938 12.4239 28.4473 12.0704 28.4473 11.6579C28.4473 11.2455 28.0938 10.892 27.6813 10.892H26.9154C26.5029 10.892 26.1494 11.2455 26.1494 11.6579C26.1494 12.0704 26.5029 12.4239 26.9154 12.4239Z" fill="white"/>
<path d="M17.6055 24.1489C18.018 24.1489 18.3715 23.7954 18.3715 23.383C18.3715 22.9705 18.018 22.617 17.6055 22.617H11.3011C10.8887 22.617 10.5352 22.9705 10.5352 23.383C10.5352 23.7954 10.8887 24.1489 11.3011 24.1489H17.6055Z" fill="white"/>
<path d="M32.6302 31.3372C32.2178 31.3372 31.8643 31.6907 31.8643 32.1031C31.8643 32.5156 32.2178 32.8691 32.6302 32.8691H34.3978C34.8102 32.8691 35.1638 32.5156 35.1638 32.1031C35.1638 31.6907 34.8102 31.3372 34.3978 31.3372H32.6302Z" fill="white"/>
<path d="M17.6644 28.3912H13.2454C12.833 28.3912 12.4795 28.7447 12.4795 29.1571C12.4795 29.5696 12.833 29.9231 13.2454 29.9231H17.6644C18.0769 29.9231 18.4304 29.5696 18.4304 29.1571C18.4304 28.7447 18.0769 28.3912 17.6644 28.3912Z" fill="white"/>
<path d="M37.6971 29.3928C37.6971 28.9804 37.2257 28.6268 36.6365 28.6268H23.9688C23.3796 28.6268 22.9082 28.9804 22.9082 29.3928C22.9082 29.8052 23.3796 30.1588 23.9688 30.1588H36.6365C37.2257 30.2177 37.6971 29.8642 37.6971 29.3928Z" fill="white"/>
<path d="M9.47461 26.27C9.47461 26.6825 9.82813 27.036 10.2406 27.036H16.4861C16.8985 27.036 17.252 26.6825 17.252 26.27C17.252 25.8576 16.8985 25.5041 16.4861 25.5041H10.2406C9.82813 25.5041 9.47461 25.8576 9.47461 26.27Z" fill="white"/>
<path d="M11.6546 32.928H17.4877C17.9001 32.928 18.2536 32.5745 18.2536 32.162C18.2536 31.7496 17.9001 31.3961 17.4877 31.3961H11.6546C11.2422 31.3961 10.8887 31.7496 10.8887 32.162C10.8887 32.5745 11.2422 32.928 11.6546 32.928Z" fill="white"/>
<path d="M8.53223 29.216C8.53223 29.6285 8.88575 29.982 9.29818 29.982H10.889C11.3015 29.982 11.655 29.6285 11.655 29.216C11.655 28.8036 11.3015 28.4501 10.889 28.4501H9.3571C8.88575 28.3912 8.53223 28.7447 8.53223 29.216Z" fill="white"/>
<path d="M20.3161 10.8331C19.8447 10.8331 19.4912 11.1866 19.4912 11.599C19.4912 12.0114 19.8447 12.365 20.3161 12.365H24.6172C25.0886 12.365 25.4421 12.0114 25.4421 11.599C25.4421 11.1866 25.0886 10.8331 24.6172 10.8331H20.3161Z" fill="white"/>
<path d="M22.3783 31.3372C21.9658 31.3372 21.6123 31.6907 21.6123 32.1031C21.6123 32.5156 21.9658 32.8691 22.3783 32.8691H30.4503C30.8627 32.8691 31.2162 32.5156 31.2162 32.1031C31.2162 31.6907 30.8627 31.3372 30.4503 31.3372H22.3783Z" fill="white"/>
<path d="M16.9571 35.8151C17.3695 35.8151 17.723 35.4615 17.723 35.0491C17.723 34.6367 17.3695 34.2831 16.9571 34.2831H14.7181C14.3057 34.2831 13.9521 34.6367 13.9521 35.0491C13.9521 35.4615 14.3057 35.8151 14.7181 35.8151H16.9571Z" fill="white"/>
<path d="M12.3031 34.2831H10.7712C10.2998 34.2831 9.94629 34.6367 9.94629 35.0491C9.94629 35.4615 10.2998 35.8151 10.7122 35.8151H12.3031C12.7155 35.8151 13.069 35.4615 13.069 35.0491C13.069 34.6367 12.7155 34.2831 12.3031 34.2831Z" fill="white"/>
<path d="M9.23895 31.3372H7.76596C7.35352 31.3372 7 31.6907 7 32.1031C7 32.5156 7.35352 32.8691 7.76596 32.8691H9.23895C9.65139 32.8691 10.0049 32.5156 10.0049 32.1031C10.0638 31.6907 9.71031 31.3372 9.23895 31.3372Z" fill="white"/>
<path d="M35.8115 34.2831H34.4564C34.0439 34.2831 33.6904 34.6367 33.6904 35.0491C33.6904 35.4615 34.0439 35.8151 34.4564 35.8151H35.8115C36.224 35.8151 36.5775 35.4615 36.5775 35.0491C36.5775 34.6367 36.224 34.2831 35.8115 34.2831Z" fill="white"/>
<path d="M37.5794 31.3372H36.6956C36.2832 31.3372 35.9297 31.6907 35.9297 32.1031C35.9297 32.5156 36.2832 32.8691 36.6956 32.8691H37.5794C37.9919 32.8691 38.3454 32.5156 38.3454 32.1031C38.3454 31.6907 37.9919 31.3372 37.5794 31.3372Z" fill="white"/>
<path d="M32.0994 34.2831H22.4954C22.083 34.2831 21.7295 34.6367 21.7295 35.0491C21.7295 35.4615 22.083 35.8151 22.4954 35.8151H32.0994C32.5118 35.8151 32.8653 35.4615 32.8653 35.0491C32.8653 34.6367 32.5118 34.2831 32.0994 34.2831Z" fill="white"/>
<path d="M8.64975 24.1489H9.18002C9.59246 24.1489 9.94598 23.7954 9.94598 23.383C9.94598 22.9705 9.59246 22.617 9.18002 22.617H8.64975C8.23731 22.617 7.88379 22.9705 7.88379 23.383C7.88379 23.7954 8.23731 24.1489 8.64975 24.1489Z" fill="white"/>
<path d="M8.8851 21.203H10.8295C11.2419 21.203 11.5954 20.8494 11.5954 20.437C11.5954 20.0246 11.2419 19.671 10.8295 19.671H8.8851C8.47266 19.671 8.11914 20.0246 8.11914 20.437C8.11914 20.8494 8.41374 21.203 8.8851 21.203Z" fill="white"/>
<path d="M17.429 12.4239H17.8415C18.2539 12.4239 18.6074 12.0704 18.6074 11.6579C18.6074 11.2455 18.2539 10.892 17.8415 10.892H17.429C17.0166 10.892 16.6631 11.2455 16.6631 11.6579C16.6631 12.0704 17.0166 12.4239 17.429 12.4239Z" fill="white"/>
<path d="M22.2015 6.59083H23.1442C23.5567 6.59083 23.9102 6.23731 23.9102 5.82487C23.9102 5.41243 23.5567 5.05891 23.1442 5.05891H22.2015C21.7891 5.05891 21.4355 5.41243 21.4355 5.82487C21.4355 6.23731 21.7891 6.59083 22.2015 6.59083Z" fill="white"/>
<path d="M16.9574 15.3699H19.7855H19.8444H19.9034H23.6153C24.0277 15.3699 24.3813 15.0164 24.3813 14.6039C24.3813 14.1915 24.0277 13.838 23.6153 13.838H19.9034H19.8444H19.7855H16.9574C16.5449 13.838 16.1914 14.1915 16.1914 14.6039C16.1914 15.0164 16.5449 15.3699 16.9574 15.3699Z" fill="white"/>
<path d="M19.8441 9.4779H23.9095C24.322 9.4779 24.6755 9.12438 24.6755 8.71194C24.6755 8.2995 24.322 7.94598 23.9095 7.94598H19.8441C19.4316 7.94598 19.0781 8.2995 19.0781 8.71194C19.0781 9.12438 19.4316 9.4779 19.8441 9.4779Z" fill="white"/>
<path d="M16.2509 18.257H16.9579C17.3704 18.257 17.7239 17.9034 17.7239 17.491C17.7239 17.0786 17.3704 16.725 16.9579 16.725H16.2509C15.8385 16.725 15.4849 17.0786 15.4849 17.491C15.426 17.9034 15.7795 18.257 16.2509 18.257Z" fill="white"/>
<path d="M13.1273 18.257H14.07C14.4824 18.257 14.836 17.9034 14.836 17.491C14.836 17.0786 14.4824 16.725 14.07 16.725H13.1273C12.7148 16.725 12.3613 17.0786 12.3613 17.491C12.3613 17.9034 12.7148 18.257 13.1273 18.257Z" fill="white"/>
<path d="M23.8507 39.9984H15.0127C14.4824 39.9984 14.4824 40.4697 14.4824 40.5286C14.4824 40.5876 14.4824 41.0589 15.0127 41.0589H23.8507C24.3809 41.0589 24.3809 40.5876 24.3809 40.5286C24.3809 40.4697 24.3809 39.9984 23.8507 39.9984Z" fill="white"/>
<path d="M22.0834 29.3339C21.9655 28.8036 20.5515 29.8642 20.5515 28.9214C20.5515 28.0966 20.5515 26.8593 20.5515 26.1522C20.5515 25.9755 20.5515 25.7987 20.5515 25.6219H19.7266C19.6087 25.6219 19.5498 25.563 19.5498 25.4452C19.5498 25.3273 19.6087 25.2684 19.7266 25.2684H20.5515C20.5515 25.2095 20.5515 25.1506 20.5515 25.0917L20.6104 24.2079C20.6104 24.2079 20.7282 23.3241 20.139 23.3241C19.9623 23.3241 19.7266 23.383 19.6087 23.5597C19.2552 23.9722 18.5482 25.1506 18.4893 25.6809C18.4303 26.329 19.3731 26.1522 19.4909 28.2733H19.7855C19.8444 28.2733 19.9033 28.3322 19.9033 28.3912C19.9033 28.4501 19.8444 28.509 19.7855 28.509H19.4909C19.4909 28.5679 19.4909 28.5679 19.4909 28.6268C19.4909 29.7463 19.5498 31.6907 19.3731 33.694H19.5498C19.6677 33.694 19.7266 33.7529 19.7266 33.8707C19.7266 33.9886 19.6677 34.0475 19.5498 34.0475H19.3141C19.1963 35.3437 19.0195 36.6989 18.7249 37.8773H19.432C19.5498 37.8773 19.6087 37.9362 19.6087 38.054C19.6087 38.1719 19.5498 38.2308 19.432 38.2308H18.6071C18.3714 38.9967 18.1357 39.7038 17.7822 40.293H20.8461C20.8461 40.293 20.0801 39.5859 20.0801 38.82C20.0801 38.1129 20.1979 36.9935 20.2569 36.0507H19.3731C19.3141 36.0507 19.2552 35.9918 19.2552 35.9329C19.2552 35.874 19.3141 35.8151 19.3731 35.8151H20.2569C20.3158 34.9313 20.3747 32.6923 20.3747 31.8085H19.9623C19.9033 31.8085 19.8444 31.7496 19.8444 31.6907C19.8444 31.6318 19.9033 31.5728 19.9623 31.5728H20.4925C20.4925 30.2766 22.2012 29.8642 22.0834 29.3339Z" fill="white"/>
</g>
<defs>
<clipPath id="clip0_2223_4627">
<rect width="31.3453" height="36" fill="white" transform="translate(7 5)"/>
</clipPath>
</defs>
</svg>
